<?xml version="1.0" encoding="UTF-8"?>
<svg width="200pt" height="200pt" viewBox="0 0 200 200" version="1.1"
    xmlns="http://www.w3.org/2000/svg">
    <g id="#5bb1f2ff">
        <path fill="#5bb1f2" opacity="1.00"
            d=" M 34.17 35.30 C 36.06 29.66 42.11 25.58 48.09 27.01 C 56.88 28.95 63.63 35.54 69.77 41.72 C 89.50 36.89 110.48 36.87 130.21 41.73 C 136.37 35.50 143.15 28.88 152.00 26.98 C 157.91 25.63 163.86 29.67 165.77 35.21 C 169.18 44.75 167.30 55.13 165.38 64.79 C 173.95 78.45 174.10 95.93 169.08 110.90 C 162.46 130.22 147.68 145.53 131.44 157.32 C 128.44 159.72 124.77 161.28 122.23 164.22 C 116.79 170.55 108.11 173.09 100.01 173.18 C 91.90 173.11 83.20 170.60 77.74 164.29 C 75.40 161.48 71.97 160.00 69.14 157.79 C 53.54 146.57 39.33 132.22 32.08 114.12 C 25.88 98.40 25.40 79.44 34.60 64.77 C 32.71 55.14 30.83 44.82 34.17 35.30 M 43.00 34.13 C 39.89 36.30 39.30 40.46 39.01 43.97 C 38.58 53.99 40.88 63.92 43.84 73.44 C 41.51 74.30 39.13 75.05 36.66 75.38 C 32.98 86.14 33.55 98.05 37.13 108.76 C 43.50 127.32 57.99 141.74 73.62 152.95 C 75.25 139.21 79.49 125.81 85.24 113.25 C 88.17 107.58 91.29 101.19 97.25 98.18 C 101.51 96.26 105.74 99.49 108.28 102.69 C 114.17 110.15 117.56 119.19 120.62 128.09 C 123.22 136.19 125.50 144.46 126.36 152.96 C 139.71 143.31 152.11 131.55 159.54 116.63 C 166.05 103.72 167.83 88.18 162.96 74.42 C 161.22 76.49 158.26 73.59 156.07 73.45 C 158.90 64.24 161.14 54.69 160.96 45.01 C 160.75 41.35 160.35 37.12 157.45 34.51 C 154.47 32.14 150.47 33.92 147.60 35.57 C 140.22 40.14 134.28 46.65 128.89 53.37 C 127.16 52.06 125.43 50.75 123.70 49.44 C 124.22 48.72 124.74 48.01 125.26 47.30 C 108.64 43.80 91.27 43.83 74.65 47.30 C 75.17 48.01 75.70 48.72 76.22 49.43 C 74.49 50.75 72.76 52.06 71.03 53.37 C 65.63 46.69 59.70 40.21 52.35 35.64 C 49.61 34.08 46.03 32.35 43.00 34.13 M 98.21 104.97 C 95.32 107.70 93.59 111.38 91.81 114.88 C 87.48 124.04 84.10 133.65 81.70 143.49 C 80.89 147.29 79.94 151.19 80.37 155.10 C 81.04 159.47 84.80 162.57 88.65 164.25 C 96.84 167.85 106.89 167.42 114.46 162.53 C 118.00 160.30 120.33 156.13 119.68 151.89 C 118.78 143.02 115.91 134.49 112.92 126.14 C 110.27 119.39 107.62 112.51 103.32 106.62 C 102.22 105.05 99.98 103.02 98.21 104.97 Z" />
        <path fill="#5bb1f2" opacity="1.00"
            d=" M 72.38 98.47 C 74.96 96.39 79.23 97.88 80.03 101.07 C 81.24 104.57 77.53 108.35 74.00 107.22 C 70.13 106.36 69.04 100.66 72.38 98.47 Z" />
        <path fill="#5bb1f2" opacity="1.00"
            d=" M 122.23 98.15 C 125.20 96.28 129.50 98.62 129.60 102.10 C 130.05 105.87 125.40 108.81 122.20 106.72 C 118.97 105.02 118.98 99.84 122.23 98.15 Z" />
        <path fill="#5bb1f2" opacity="1.00"
            d=" M 94.41 137.62 C 99.49 136.55 105.08 136.75 109.76 139.18 C 111.88 140.24 113.95 142.61 112.90 145.13 C 111.00 150.75 106.26 156.44 99.96 156.78 C 93.64 156.39 88.92 150.67 87.04 145.03 C 85.82 140.64 90.97 138.39 94.41 137.62 Z" />
    </g>
</svg>