<?xml version="1.0" encoding="UTF-8" standalone="no"?>
<svg
  id="svg728268"
  viewBox="0 0 680.85936 150.7617"
  height="155"
  width="700"
  version="1.1"
  sodipodi:docname="logo.svg"
  inkscape:version="1.3.2 (091e20ef0f, 2023-11-25, custom)"
  xml:space="preserve"
  xmlns:inkscape="http://www.inkscape.org/namespaces/inkscape"
  xmlns:sodipodi="http://sodipodi.sourceforge.net/DTD/sodipodi-0.dtd"
  xmlns:xlink="http://www.w3.org/1999/xlink"
  xmlns="http://www.w3.org/2000/svg"
  xmlns:svg="http://www.w3.org/2000/svg"
  xmlns:rdf="http://www.w3.org/1999/02/22-rdf-syntax-ns#"
  xmlns:cc="http://creativecommons.org/ns#"
  xmlns:dc="http://purl.org/dc/elements/1.1/"><sodipodi:namedview
     id="namedview1"
     pagecolor="#ffffff"
     bordercolor="#000000"
     borderopacity="0.25"
     inkscape:showpageshadow="2"
     inkscape:pageopacity="0.0"
     inkscape:pagecheckerboard="0"
     inkscape:deskcolor="#d1d1d1"
     inkscape:zoom="2.1507831"
     inkscape:cx="264.78728"
     inkscape:cy="72.531721"
     inkscape:window-width="2555"
     inkscape:window-height="1372"
     inkscape:window-x="0"
     inkscape:window-y="0"
     inkscape:window-maximized="0"
     inkscape:current-layer="svg728268" /><metadata
     id="metadata728274"><rdf:rdf><cc:work
         rdf:about=""><dc:format>image/svg+xml</dc:format><dc:type
           rdf:resource="http://purl.org/dc/dcmitype/StillImage" /></cc:work></rdf:rdf></metadata><defs
     id="defs728272" /><linearGradient
     spreadMethod="pad"
     y2="0.30000001"
     x2="-0.1"
     y1="1.2"
     x1="0.30000001"
     id="3d_gradient2-logo-6cfd8fe1-1942-4818-8091-0c3ddca59c28"><stop
       id="stop728249"
       stop-opacity="1"
       stop-color="#ffffff"
       offset="0%" /><stop
       id="stop728251"
       stop-opacity="1"
       stop-color="#000000"
       offset="100%" /></linearGradient><linearGradient
     gradientTransform="rotate(-30)"
     spreadMethod="pad"
     y2="0.30000001"
     x2="-0.1"
     y1="1.2"
     x1="0.30000001"
     id="3d_gradient3-logo-6cfd8fe1-1942-4818-8091-0c3ddca59c28"><stop
       id="stop728254"
       stop-opacity="1"
       stop-color="#ffffff"
       offset="0%" /><stop
       id="stop728256"
       stop-opacity="1"
       stop-color="#cccccc"
       offset="50%" /><stop
       id="stop728258"
       stop-opacity="1"
       stop-color="#000000"
       offset="100%" /></linearGradient><g
     id="logo-group"
     transform="translate(-181.63695,-309)"><image
       xlink:href=""
       id="container"
       style="display:none"
       x="272"
       y="144"
       width="480"
       height="480" /><g
       id="logo-center"
       transform="translate(201.63695)"><image
         xlink:href=""
         id="icon_container"
         style="display:none"
         x="0"
         y="0" /><g
         id="slogan"
         style="font-style:normal;font-weight:400;font-size:32px;line-height:1;font-family:'Roboto Slab';font-variant-ligatures:none;text-align:center;text-anchor:middle" /><g
         id="title"
         style="font-style:normal;font-weight:normal;font-size:72px;line-height:1;font-family:Fulbo;font-variant-ligatures:none;text-align:center;text-anchor:middle"><path
           id="path728277"
           style="font-style:normal;font-weight:normal;font-size:72px;line-height:1;font-family:Fulbo;font-variant-ligatures:none;text-align:center;text-anchor:middle"
           d="m 344.76537,-48.6 c -0.432,-1.512 -1.728,-2.52 -3.312,-2.52 h -4.896 c -1.584,0 -2.88,1.008 -3.31199,2.52 l -13.82401,44.64 c -0.072,0.288 -0.072,0.576 -0.072,1.008 0,1.656 1.224,2.952 2.88,2.952 h 4.464 c 1.512,0 2.808,-1.008 3.24,-2.592 l 2.592,-8.568 h 12.888 l 2.52,8.568 c 0.432,1.584 1.72801,2.592 3.312,2.592 h 4.53601 c 1.65599,0 2.88,-1.296 2.88,-2.952 0,-0.432 0,-0.72 -0.072,-1.008 z m -2.448,27 h -6.768 l 3.384,-11.592 z"
           stroke-width="0"
           stroke-linejoin="miter"
           stroke-miterlimit="2"
           fill="#45d7b7"
           stroke="#45d7b7"
           transform="matrix(1.25,0,0,1.25,-239.68671,415.635)" /><path
           id="path728279"
           style="font-style:normal;font-weight:normal;font-size:72px;line-height:1;font-family:Fulbo;font-variant-ligatures:none;text-align:center;text-anchor:middle"
           d="m 404.93712,-47.88 c 0,-1.584 -1.152,-2.808 -2.664,-2.808 h -5.112 c -1.51199,0 -2.736,1.224 -2.736,2.808 v 28.728 c 0,4.824 -2.448,9.216 -7.70399,9.216 -4.752,0 -7.776,-3.6 -7.776,-9.216 V -47.88 c 0,-1.584 -1.224,-2.808 -2.73601,-2.808 h -5.04 c -1.512,0 -2.73599,1.224 -2.73599,2.808 v 28.368 c 0,10.656 6.98399,20.448 18.288,20.448 11.30399,0 18.21599,-9.792 18.21599,-20.448 z"
           stroke-width="0"
           stroke-linejoin="miter"
           stroke-miterlimit="2"
           fill="#45d7b7"
           stroke="#45d7b7"
           transform="matrix(1.25,0,0,1.25,-239.68671,415.635)" /><path
           id="path728281"
           style="font-style:normal;font-weight:normal;font-size:72px;line-height:1;font-family:Fulbo;font-variant-ligatures:none;text-align:center;text-anchor:middle"
           d="m 449.75375,-47.88 c 0,-1.656 -1.224,-2.88 -2.736,-2.88 h -29.088 c -1.512,0 -2.736,1.224 -2.736,2.88 v 4.968 c 0,1.584 1.224,2.88 2.736,2.88 h 9.288 V -2.88 c 0,1.656 1.224,2.88 2.736,2.88 h 5.04 c 1.512,0 2.736,-1.224 2.736,-2.88 v -37.152 h 9.288 c 1.512,0 2.736,-1.296 2.736,-2.88 z"
           stroke-width="0"
           stroke-linejoin="miter"
           stroke-miterlimit="2"
           fill="#45d7b7"
           stroke="#45d7b7"
           transform="matrix(1.25,0,0,1.25,-239.68671,415.635)" /><path
           id="path728283"
           style="font-style:normal;font-weight:normal;font-size:72px;line-height:1;font-family:Fulbo;font-variant-ligatures:none;text-align:center;text-anchor:middle"
           d="m 493.92237,-32.472 c 0,-10.152 -7.84799,-19.08 -18.216,-19.08 -10.368,0 -18.216,8.928 -18.216,19.08 v 14.256 c 0,10.152 7.776,19.152 18.216,19.152 10.44,0 18.216,-9 18.216,-19.152 z m -10.512,14.256 c 0,4.248 -3.24,8.424 -7.704,8.424 -4.392,0 -7.70399,-4.248 -7.70399,-8.424 v -14.256 c 0,-4.248 3.31199,-8.352 7.70399,-8.352 4.464,0 7.704,4.104 7.704,8.352 z"
           stroke-width="0"
           stroke-linejoin="miter"
           stroke-miterlimit="2"
           fill="#45d7b7"
           stroke="#45d7b7"
           transform="matrix(1.25,0,0,1.25,-239.68671,415.635)" /><path
           id="path728285"
           style="font-style:normal;font-weight:normal;font-size:72px;line-height:1;font-family:Fulbo;font-variant-ligatures:none;text-align:center;text-anchor:middle"
           d="m 512.73575,0 c 1.512,0 2.736,-1.224 2.736,-2.808 v -17.208 h 0.36 l 13.896,18.504 c 0.72,1.008 1.728,1.512 2.952,1.512 l 5.904,0.072 c 1.512,0 2.664,-1.152 2.664,-2.664 0,-0.576 -0.216,-1.152 -0.576,-1.656 l -15.984,-21.384 15.912,-20.736 c 0.36,-0.576 0.576,-1.152 0.576,-1.728 0,-1.512 -1.152,-2.664 -2.664,-2.664 h -5.76 c -1.224,0 -2.304,0.504 -3.024,1.512 l -14.184,18.792 h -0.072 V -47.88 c 0,-1.656 -1.224,-2.88 -2.736,-2.88 h -5.04 c -1.512,0 -2.736,1.224 -2.736,2.88 v 45.072 c 0,1.584 1.224,2.808 2.736,2.808 z"
           stroke-width="0"
           stroke-linejoin="miter"
           stroke-miterlimit="2"
           fill="#5bb1f2"
           stroke="#5bb1f2"
           transform="matrix(1.25,0,0,1.25,-239.68671,415.635)" /><path
           id="path728287"
           style="font-style:normal;font-weight:normal;font-size:72px;line-height:1;font-family:Fulbo;font-variant-ligatures:none;text-align:center;text-anchor:middle"
           d="m 588.03088,-47.88 c 0,-1.584 -1.15201,-2.808 -2.664,-2.808 h -5.11201 c -1.51199,0 -2.736,1.224 -2.736,2.808 v 28.728 c 0,4.824 -2.448,9.216 -7.70399,9.216 -4.75201,0 -7.77601,-3.6 -7.77601,-9.216 V -47.88 c 0,-1.584 -1.22399,-2.808 -2.736,-2.808 h -5.04 c -1.512,0 -2.73599,1.224 -2.73599,2.808 v 28.368 c 0,10.656 6.984,20.448 18.288,20.448 11.30399,0 18.216,-9.792 18.216,-20.448 z"
           stroke-width="0"
           stroke-linejoin="miter"
           stroke-miterlimit="2"
           fill="#5bb1f2"
           stroke="#5bb1f2"
           transform="matrix(1.25,0,0,1.25,-239.68671,415.635)" /><path
           id="path728289"
           style="font-style:normal;font-weight:normal;font-size:72px;line-height:1;font-family:Fulbo;font-variant-ligatures:none;text-align:center;text-anchor:middle"
           d="m 622.1915,-2.016 c 0.432,1.44 1.728,2.448 3.24,2.448 h 4.896 c 1.512,0 2.808,-1.008 3.24,-2.52 l 7.992,-26.064 2.736,25.272 c 0.144,1.656 1.512,2.88 3.096,2.88 h 4.968 c 0.864,0 1.584,-0.288 2.088,-0.864 0.504,-0.648 0.792,-1.44 0.72,-2.376 l -5.328,-44.352 c -0.144,-1.944 -1.584,-3.312 -3.528,-3.312 h -5.256 c -1.512,0 -2.88,1.008 -3.312,2.448 l -9.504,30.888 -9.576,-30.816 c -0.432,-1.512 -1.728,-2.52 -3.24,-2.52 h -5.832 c -1.872,0 -3.312,1.368 -3.456,3.312 l -5.328,44.352 c -0.072,0.936 0.216,1.728 0.72,2.376 0.504,0.576 1.224,0.864 2.088,0.864 h 4.752 c 1.512,0 2.808,-1.152 3.096,-2.808 l 2.664,-25.272 z"
           stroke-width="0"
           stroke-linejoin="miter"
           stroke-miterlimit="2"
           fill="#5bb1f2"
           stroke="#5bb1f2"
           transform="matrix(1.25,0,0,1.25,-239.68671,415.635)" /><path
           id="path728291"
           style="font-style:normal;font-weight:normal;font-size:72px;line-height:1;font-family:Fulbo;font-variant-ligatures:none;text-align:center;text-anchor:middle"
           d="m 690.56225,-48.6 c -0.432,-1.512 -1.728,-2.52 -3.24,-2.52 h -4.968 c -1.512,0 -2.88,1.008 -3.312,2.52 l -13.752,44.64 c -0.072,0.288 -0.144,0.576 -0.144,1.008 0,1.656 1.296,2.952 2.88,2.952 h 4.464 c 1.512,0 2.808,-1.008 3.312,-2.592 l 2.52,-8.568 h 12.888 l 2.592,8.568 c 0.432,1.584 1.728,2.592 3.24,2.592 h 4.608 c 1.584,0 2.88,-1.296 2.88,-2.952 0,-0.432 -0.072,-0.72 -0.144,-1.008 z m -2.448,27 h -6.696 l 3.384,-11.592 z"
           stroke-width="0"
           stroke-linejoin="miter"
           stroke-miterlimit="2"
           fill="#5bb1f2"
           stroke="#5bb1f2"
           transform="matrix(1.25,0,0,1.25,-239.68671,415.635)" /></g></g></g><g
     id="#5bb1f2ff"
     transform="matrix(1.0405241,0,0,1.0293585,-28.655534,-27.502601)"><path
       fill="#5bb1f2"
       opacity="1"
       d="m 34.17,35.3 c 1.89,-5.64 7.94,-9.72 13.92,-8.29 8.79,1.94 15.54,8.53 21.68,14.71 19.73,-4.83 40.71,-4.85 60.44,0.01 6.16,-6.23 12.94,-12.85 21.79,-14.75 5.91,-1.35 11.86,2.69 13.77,8.23 3.41,9.54 1.53,19.92 -0.39,29.58 8.57,13.66 8.72,31.14 3.7,46.11 -6.62,19.32 -21.4,34.63 -37.64,46.42 -3,2.4 -6.67,3.96 -9.21,6.9 -5.44,6.33 -14.12,8.87 -22.22,8.96 C 91.9,173.11 83.2,170.6 77.74,164.29 75.4,161.48 71.97,160 69.14,157.79 53.54,146.57 39.33,132.22 32.08,114.12 25.88,98.4 25.4,79.44 34.6,64.77 32.71,55.14 30.83,44.82 34.17,35.3 M 43,34.13 c -3.11,2.17 -3.7,6.33 -3.99,9.84 -0.43,10.02 1.87,19.95 4.83,29.47 -2.33,0.86 -4.71,1.61 -7.18,1.94 -3.68,10.76 -3.11,22.67 0.47,33.38 6.37,18.56 20.86,32.98 36.49,44.19 1.63,-13.74 5.87,-27.14 11.62,-39.7 2.93,-5.67 6.05,-12.06 12.01,-15.07 4.26,-1.92 8.49,1.31 11.03,4.51 5.89,7.46 9.28,16.5 12.34,25.4 2.6,8.1 4.88,16.37 5.74,24.87 13.35,-9.65 25.75,-21.41 33.18,-36.33 6.51,-12.91 8.29,-28.45 3.42,-42.21 -1.74,2.07 -4.7,-0.83 -6.89,-0.97 2.83,-9.21 5.07,-18.76 4.89,-28.44 -0.21,-3.66 -0.61,-7.89 -3.51,-10.5 -2.98,-2.37 -6.98,-0.59 -9.85,1.06 -7.38,4.57 -13.32,11.08 -18.71,17.8 -1.73,-1.31 -3.46,-2.62 -5.19,-3.93 0.52,-0.72 1.04,-1.43 1.56,-2.14 -16.62,-3.5 -33.99,-3.47 -50.61,0 0.52,0.71 1.05,1.42 1.57,2.13 -1.73,1.32 -3.46,2.63 -5.19,3.94 C 65.63,46.69 59.7,40.21 52.35,35.64 49.61,34.08 46.03,32.35 43,34.13 m 55.21,70.84 c -2.89,2.73 -4.62,6.41 -6.4,9.91 -4.33,9.16 -7.71,18.77 -10.11,28.61 -0.81,3.8 -1.76,7.7 -1.33,11.61 0.67,4.37 4.43,7.47 8.28,9.15 8.19,3.6 18.24,3.17 25.81,-1.72 3.54,-2.23 5.87,-6.4 5.22,-10.64 -0.9,-8.87 -3.77,-17.4 -6.76,-25.75 -2.65,-6.75 -5.3,-13.63 -9.6,-19.52 -1.1,-1.57 -3.34,-3.6 -5.11,-1.65 z"
       id="path1" /><path
       fill="#5bb1f2"
       opacity="1"
       d="m 72.38,98.47 c 2.58,-2.08 6.85,-0.59 7.65,2.6 1.21,3.5 -2.5,7.28 -6.03,6.15 -3.87,-0.86 -4.96,-6.56 -1.62,-8.75 z"
       id="path2" /><path
       fill="#5bb1f2"
       opacity="1"
       d="m 122.23,98.15 c 2.97,-1.87 7.27,0.47 7.37,3.95 0.45,3.77 -4.2,6.71 -7.4,4.62 -3.23,-1.7 -3.22,-6.88 0.03,-8.57 z"
       id="path3" /><path
       fill="#5bb1f2"
       opacity="1"
       d="m 94.41,137.62 c 5.08,-1.07 10.67,-0.87 15.35,1.56 2.12,1.06 4.19,3.43 3.14,5.95 -1.9,5.62 -6.64,11.31 -12.94,11.65 -6.32,-0.39 -11.04,-6.11 -12.92,-11.75 -1.22,-4.39 3.93,-6.64 7.37,-7.41 z"
       id="path4" /></g></svg>